<svg xmlns="http://www.w3.org/2000/svg" width="256" height="256" viewBox="0 0 100 100"><rect width="100" height="100" rx="20" fill="#272738"></rect><path fill="#fff" d="M22.81 27.30L22.81 27.30Q22.36 30.90 21.86 33.87Q21.37 36.84 21.19 40.26L21.19 40.26Q24.52 38.73 28.79 37.34Q33.07 35.94 37.39 35.13L37.39 35.13Q39.46 34.68 40.45 35.00Q41.44 35.31 41.80 36.03L41.80 36.03Q42.07 36.75 41.84 37.79Q41.62 38.82 39.91 39.36L39.91 39.36Q35.23 40.80 30.77 42.60Q26.32 44.40 21.55 46.83L21.55 46.83Q20.29 47.55 19.21 47.37L19.21 47.37Q17.23 47.19 16.15 45.57Q15.07 43.95 15.07 41.61L15.07 41.61Q15.07 37.74 15.52 34.41Q15.97 31.08 16.78 26.85L16.78 26.85Q16.78 26.67 16.87 26.49L16.87 26.49Q16.42 26.58 16.06 26.58Q15.70 26.58 15.25 26.58L15.25 26.58Q13.54 26.67 12.23 25.73Q10.93 24.78 10.84 23.79L10.84 23.79Q10.66 23.25 11.02 22.53Q11.38 21.81 13.18 21.45L13.18 21.45Q18.22 20.64 23.35 20.28Q28.48 19.92 32.53 20.46L32.53 20.46Q34.15 20.64 34.87 21.63Q35.59 22.62 35.59 23.07L35.59 23.07Q35.59 23.52 35.27 23.97Q34.96 24.42 33.79 24.60L33.79 24.60Q30.91 25.05 28.03 25.41Q25.15 25.77 22.36 26.04L22.36 26.04Q22.63 26.49 22.81 27.30ZM34.06 79.86L34.06 79.86Q32.53 79.86 31.81 78.60Q31.09 77.34 30.91 76.44L30.91 76.44Q30.64 74.55 30.64 72.03Q30.64 69.51 30.77 66.77Q30.91 64.02 31.27 61.32Q31.63 58.62 32.08 56.46L32.08 56.46Q28.75 57.18 25.42 57.95Q22.09 58.71 18.94 59.52L18.94 59.52Q17.23 59.97 15.83 59.34Q14.44 58.71 14.35 57.45L14.35 57.45Q14.17 56.10 15.65 55.20Q17.14 54.30 18.67 53.85L18.67 53.85Q24.88 52.05 31.49 50.97Q38.11 49.89 45.04 48.99L45.04 48.99Q46.03 48.81 47.47 49.08Q48.91 49.35 49.18 50.34L49.18 50.34Q49.45 51.33 48.77 52.28Q48.10 53.22 46.75 53.58L46.75 53.58Q44.41 54.03 41.98 54.53Q39.55 55.02 36.94 55.47L36.94 55.47Q37.39 56.19 37.61 57.09Q37.84 57.99 37.66 58.71L37.66 58.71Q37.48 60.15 37.21 62.36Q36.94 64.56 36.76 67.13Q36.58 69.69 36.44 72.30Q36.31 74.91 36.31 77.16L36.31 77.16Q36.31 78.24 35.54 79.05Q34.78 79.86 34.06 79.86ZM62.77 27.30L62.77 27.30Q62.32 30.90 61.82 33.87Q61.33 36.84 61.15 40.26L61.15 40.26Q64.48 38.73 68.75 37.34Q73.03 35.94 77.35 35.13L77.35 35.13Q79.42 34.68 80.41 35.00Q81.40 35.31 81.76 36.03L81.76 36.03Q82.03 36.75 81.80 37.79Q81.58 38.82 79.87 39.36L79.87 39.36Q75.19 40.80 70.73 42.60Q66.28 44.40 61.51 46.83L61.51 46.83Q60.25 47.55 59.17 47.37L59.17 47.37Q57.19 47.19 56.11 45.57Q55.03 43.95 55.03 41.61L55.03 41.61Q55.03 37.74 55.48 34.41Q55.93 31.08 56.74 26.85L56.74 26.85Q56.74 26.67 56.83 26.49L56.83 26.49Q56.38 26.58 56.02 26.58Q55.66 26.58 55.21 26.58L55.21 26.58Q53.50 26.67 52.19 25.73Q50.89 24.78 50.80 23.79L50.80 23.79Q50.62 23.25 50.98 22.53Q51.34 21.81 53.14 21.45L53.14 21.45Q58.18 20.64 63.31 20.28Q68.44 19.92 72.49 20.46L72.49 20.46Q74.11 20.64 74.83 21.63Q75.55 22.62 75.55 23.07L75.55 23.07Q75.55 23.52 75.23 23.97Q74.92 24.42 73.75 24.60L73.75 24.60Q70.87 25.05 67.99 25.41Q65.11 25.77 62.32 26.04L62.32 26.04Q62.59 26.49 62.77 27.30ZM74.02 79.86L74.02 79.86Q72.49 79.86 71.77 78.60Q71.05 77.34 70.87 76.44L70.87 76.44Q70.60 74.55 70.60 72.03Q70.60 69.51 70.73 66.77Q70.87 64.02 71.23 61.32Q71.59 58.62 72.04 56.46L72.04 56.46Q68.71 57.18 65.38 57.95Q62.05 58.71 58.90 59.52L58.90 59.52Q57.19 59.97 55.79 59.34Q54.40 58.71 54.31 57.45L54.31 57.45Q54.13 56.10 55.61 55.20Q57.10 54.30 58.63 53.85L58.63 53.85Q64.84 52.05 71.45 50.97Q78.07 49.89 85.00 48.99L85.00 48.99Q85.99 48.81 87.43 49.08Q88.87 49.35 89.14 50.34L89.14 50.34Q89.41 51.33 88.73 52.28Q88.06 53.22 86.71 53.58L86.71 53.58Q84.37 54.03 81.94 54.53Q79.51 55.02 76.90 55.47L76.90 55.47Q77.35 56.19 77.57 57.09Q77.80 57.99 77.62 58.71L77.62 58.71Q77.44 60.15 77.17 62.36Q76.90 64.56 76.72 67.13Q76.54 69.69 76.40 72.30Q76.27 74.91 76.27 77.16L76.27 77.16Q76.27 78.24 75.50 79.05Q74.74 79.86 74.02 79.86Z"></path></svg>